<svg xmlns="http://www.w3.org/2000/svg" width="164" height="40" viewBox="0 0 164 40">
  <defs>
    <style>
      .cls-1 {
        fill: #c11f28;
        fill-rule: evenodd;
      }
    </style>
  </defs>
  <path id="logo.svg" class="cls-1" d="M256.219,15.078c5.039-.275,10.305.144,14.962,2.212a15.162,15.162,0,0,1,4.5,3.648A11.781,11.781,0,0,1,278,27.2a16.92,16.92,0,0,1-3.568,10.221,32.41,32.41,0,0,1-7.9,7.63,50.549,50.549,0,0,1-16.718,8.072,50.435,50.435,0,0,1-19.338,1.532l-0.022-.137a45.79,45.79,0,0,0,17.866-3.3,44.663,44.663,0,0,0,11.1-6.314,27.172,27.172,0,0,0,6.963-7.938,12.14,12.14,0,0,0,1.426-7.642,8.605,8.605,0,0,0-4.513-5.948,21.718,21.718,0,0,0-9.914-2.588,36.837,36.837,0,0,0-16,2.541,47.516,47.516,0,0,0-15.631,9.939c-0.449.224-.528-0.192-0.371-0.528C229.62,22.183,242.77,15.721,256.219,15.078Zm4.541,26.658c-4.876-5.067-11-9.8-17.88-11.742a4.218,4.218,0,0,0-1.106.852c6.388,2.205,11.556,6.839,15.786,11.92,0.257,0.446.929,0.772,0.906,1.341a12.487,12.487,0,0,1-3.2,2.146,34.563,34.563,0,0,0-5.955-7.723,24.972,24.972,0,0,0-8.47-5.858c-0.377-.123-0.864-0.526-1.217-0.1-2.078,2.125-4.318,4.1-6.181,6.419A82.183,82.183,0,0,0,224.4,52.369a4.395,4.395,0,0,1-2.262-.8,62.086,62.086,0,0,1,4.884-7.772A63.561,63.561,0,0,1,237.8,32.456a2.669,2.669,0,0,0,.723-0.643,1.35,1.35,0,0,0-1.24-.029A73.943,73.943,0,0,0,220.52,50.527c-0.641-.275-1.874-0.92-1.253-1.7a66.315,66.315,0,0,1,14.419-15.856,15.609,15.609,0,0,0,2.2-1.78,1.95,1.95,0,0,0-2.324.435,76.6,76.6,0,0,0-15.744,16.163,7.26,7.26,0,0,1-.676-1.357,0.565,0.565,0,0,1-.048-0.664,68.393,68.393,0,0,1,7.3-8.076,68.041,68.041,0,0,1,8.28-6.954,28.731,28.731,0,0,0-6.85.107c-0.613.183-.173-0.562,0.163-0.588a34.239,34.239,0,0,1,8.358-.771,1.3,1.3,0,0,0,.956-0.594,32.142,32.142,0,0,0-8.1.743,4.133,4.133,0,0,1,1.3-.856,40.56,40.56,0,0,1,8.16-.983,1.831,1.831,0,0,0,1.58-.585,43.107,43.107,0,0,0-8.883.9,2.063,2.063,0,0,1,.8-0.449,43.907,43.907,0,0,1,9.747-1.552,6.218,6.218,0,0,0,2.02-.746,57.908,57.908,0,0,1,8-3.279,6.207,6.207,0,0,1,1.5-.465l0.892-.076-0.059.117a73.486,73.486,0,0,0-8.319,3.545,4.12,4.12,0,0,0-1.268.731c0.576-.075,1.18.356,1.72,0.014a76.39,76.39,0,0,1,8.529-3.95,4.053,4.053,0,0,1,2.034-.294,1.169,1.169,0,0,1-.807.432,65.483,65.483,0,0,0-8.09,3.771,0.325,0.325,0,0,0-.272.366c1.133,0.31,1.963-.546,2.9-0.98a63.836,63.836,0,0,1,6.253-2.981,3.616,3.616,0,0,1,1.875-.306,0.616,0.616,0,0,1-.466.331,60.159,60.159,0,0,0-7.021,3.291,6.637,6.637,0,0,0-1.192.787c1.731,0.392,3.533.737,5.268,1.213a54.109,54.109,0,0,1,12.658,5.684c-0.383.9-.758,1.8-1.1,2.717l-0.234-.031a46.592,46.592,0,0,0-18.361-8.132c-0.664-.314-0.984.339-1.472,0.58-0.009.064-.026,0.194-0.036,0.258a40.87,40.87,0,0,1,17.776,9.82,3.473,3.473,0,0,0,.808.6m-23.173-11.9c-0.356.226-1.618,0.821-.1,0.641,0.654,0.272,1.109-.224,1.621-0.491A4.332,4.332,0,0,0,240.265,27.239Zm3.1,0.307a1.281,1.281,0,0,0-.831.72,2.392,2.392,0,0,0,1.836-.5C244.337,27.31,243.538,27.562,243.363,27.546Zm-6.045,1.528c-0.356.224-1.612,0.819-.1,0.638a1.6,1.6,0,0,0,1.621-.5A7.3,7.3,0,0,0,237.318,29.074Zm3.1,0.459a1.321,1.321,0,0,0-.82.687,1.329,1.329,0,0,0,1.693-.547A1.909,1.909,0,0,0,240.417,29.533Zm62.433,5.172,8-11.24h-6.173l-7.259,10.021V23.465H292V46.539h5.428V35.859l7.6,10.68H311.2Zm33.783,11.833L328.56,23.465h-6.92l-8.074,23.074H319.5l1.187-3.626h8.82l1.187,3.626h5.936ZM325.1,29.5l2.781,8.471h-5.563Zm11.871-6.032v5.076h6.106v18H348.5v-18h6.106V23.465H336.971ZM377.4,43.539A11.324,11.324,0,0,0,381,35a11.324,11.324,0,0,0-3.6-8.537,12.8,12.8,0,0,0-17.5,0A11.325,11.325,0,0,0,356.3,35a11.325,11.325,0,0,0,3.6,8.537A12.8,12.8,0,0,0,377.4,43.539Zm-13.7-3.593A6.58,6.58,0,0,1,361.732,35a6.581,6.581,0,0,1,1.967-4.945,6.83,6.83,0,0,1,4.953-1.912,6.748,6.748,0,0,1,4.918,1.912,6.607,6.607,0,0,1,2,4.945,6.607,6.607,0,0,1-2,4.944,6.749,6.749,0,0,1-4.918,1.912A6.83,6.83,0,0,1,363.7,39.946Z" transform="translate(-217 -15)"/>
</svg>
