<svg width="240" height="35" viewBox="0 0 240 35" fill="none" xmlns="http://www.w3.org/2000/svg">
<path d="M0 28.3814V35H6.87192C8.01724 35 9.03531 34.4909 9.79885 33.7272C10.5624 32.9635 11.0714 32.0725 11.0714 30.7997V18.4534H4.19951C3.05419 18.4534 2.03613 18.9626 1.27258 19.7262C0.509031 20.4899 0 21.3809 0 22.6537V28.3814Z" fill="white"/>
<path d="M0 6.61863V0H6.87192C8.01724 0 9.03531 0.509125 9.79885 1.27281C10.5624 2.0365 11.0714 2.92747 11.0714 4.20029V16.5466H4.19951C3.05419 16.5466 2.03613 16.0375 1.27258 15.2738C0.509031 14.5101 0 13.6191 0 12.3463V6.61863Z" fill="white"/>
<path d="M20.7438 26.4721V31.3088H15.7807C15.0172 31.3088 14.2537 31.0543 13.6174 30.4179C12.9811 29.7815 12.7266 29.145 12.7266 28.2541V19.2171H17.6896C18.4532 19.2171 19.2167 19.4717 19.853 20.1081C20.4893 20.7445 20.7438 21.3809 20.7438 22.2719V26.4721Z" fill="white"/>
<path d="M26.2148 4.96412H32.705V22.0198H32.9595L40.9768 4.96412H50.0121V30.8022H43.5219V13.7465H43.3947L35.6319 30.8022H26.2148V4.96412ZM76.7362 4.96412V30.8022H69.8643V20.747H60.829V30.8022H53.9571V4.96412H60.829V14.7648H69.8643V4.96412H76.7362ZM99.2608 30.675H92.3889V28.2566H88.8257C87.1714 28.2566 85.517 28.1293 84.3717 27.7475C83.0991 27.4929 82.2083 26.8565 81.4447 26.0928C80.6812 25.3291 80.1722 24.1836 79.9176 22.7835C79.6631 21.3834 79.4086 19.856 79.4086 17.8195C79.4086 15.1466 79.6631 13.1101 80.2994 11.5828C80.9357 10.0554 81.8265 8.90984 83.2264 8.27344C84.6262 7.63703 86.5351 7.38247 88.8257 7.38247H92.3889V4.96412H99.2608V7.38247H102.697C104.987 7.38247 106.896 7.63703 108.296 8.27344C109.696 8.90984 110.587 9.92809 111.223 11.5828C111.859 13.2374 112.114 15.1466 112.114 17.8195C112.114 19.856 111.987 21.5107 111.605 22.9108C111.35 24.1836 110.714 25.2019 110.078 26.2201C109.314 26.9838 108.423 27.6202 107.151 27.8748C105.878 28.1293 104.478 28.3839 102.697 28.3839H99.2608V30.675ZM89.971 22.2744H92.2617V13.2374H89.971C89.0802 13.2374 88.4439 13.3647 87.8076 13.7465C87.2986 14.0011 86.9168 14.5102 86.6623 15.1466C86.5351 15.783 86.4078 16.674 86.4078 17.8195C86.4078 19.0924 86.5351 19.856 86.6623 20.6197C86.7896 21.2561 87.2986 21.7653 87.8076 22.0198C88.4439 22.1471 89.0802 22.2744 89.971 22.2744ZM99.2608 22.2744H101.551C102.442 22.2744 103.079 22.1471 103.588 22.0198C104.097 21.7653 104.478 21.2561 104.733 20.6197C104.987 19.9833 104.987 19.0924 104.987 17.8195C104.987 16.1649 104.733 15.0193 104.224 14.2557C103.715 13.6193 102.824 13.3647 101.424 13.3647H99.1336L99.2608 22.2744ZM125.858 31.0568C123.949 31.0568 122.295 30.9295 120.895 30.8022C119.495 30.5477 118.222 30.0385 117.204 29.4021C116.059 28.7657 115.295 27.8748 114.786 26.4747C114.15 25.2019 113.895 23.6745 113.895 21.638V14.3829C113.895 12.4737 114.15 10.8191 114.786 9.54625C115.423 8.27344 116.186 7.38247 117.204 6.61878C118.222 5.85509 119.495 5.47325 120.895 5.0914C122.295 4.83684 123.949 4.58228 125.858 4.58228C127.766 4.58228 129.421 4.70956 130.821 4.83684C132.221 5.0914 133.493 5.60053 134.511 6.23693C135.656 6.87334 136.42 7.89159 136.929 9.1644C137.565 10.4372 137.82 11.9646 137.82 14.0011V21.2561C137.82 23.1654 137.565 24.82 136.929 26.0928C136.293 27.3656 135.529 28.2566 134.511 29.0203C133.366 29.784 132.221 30.2931 130.821 30.4204C129.421 30.8022 127.639 31.0568 125.858 31.0568ZM125.858 24.9473C127.13 24.9473 128.148 24.82 128.785 24.6927C129.421 24.5655 129.93 24.0563 130.184 23.4199C130.439 22.7835 130.693 21.8925 130.693 20.6197V14.7648C130.693 13.8738 130.566 13.1101 130.439 12.4737C130.312 11.9646 129.93 11.5828 129.675 11.2009C129.421 10.9463 128.912 10.6918 128.276 10.5645C127.639 10.5645 126.876 10.4372 125.985 10.4372C124.712 10.4372 123.694 10.5645 123.058 10.6918C122.422 10.8191 121.913 11.3282 121.658 11.9646C121.404 12.601 121.149 13.492 121.149 14.7648V20.6197C121.149 21.8925 121.276 22.7835 121.658 23.4199C121.913 24.0563 122.422 24.3109 123.058 24.5655C123.44 24.82 124.458 24.9473 125.858 24.9473Z" fill="#FFDF00"/>
<path d="M138.33 4.96371H146.093L150.547 16.1645H150.801L155.255 4.96371H163.145L153.347 24.9469C152.583 26.4743 151.819 27.6198 151.056 28.5108C150.292 29.4017 149.529 30.0381 148.638 30.42C147.747 30.8018 146.475 31.0564 145.202 31.0564C144.311 31.0564 143.039 30.9291 141.766 30.8018V25.2014C142.275 25.3287 143.039 25.456 144.057 25.456C144.82 25.456 145.457 25.456 145.711 25.3287C145.966 25.3287 146.347 25.2014 146.475 24.8196C146.602 24.6923 146.729 24.1832 146.984 23.6741L138.33 4.96371ZM172.053 30.6745H165.181V4.83643H178.162C179.689 4.83643 181.089 4.96371 182.361 5.34555C183.507 5.60011 184.397 6.23652 185.034 7.00021C185.67 7.7639 186.306 8.65487 186.561 9.92768C186.815 11.2005 187.07 12.6006 187.07 14.2552C187.07 16.1645 186.943 17.6918 186.815 18.9647C186.561 20.2375 186.052 21.1284 185.415 21.8921C184.779 22.6558 183.888 23.1649 182.743 23.4195C181.598 23.6741 180.071 23.9286 178.289 23.9286H172.308L172.053 30.6745ZM172.053 18.0737H176.762C177.653 18.0737 178.289 17.9464 178.798 17.8191C179.307 17.6918 179.562 17.31 179.689 16.6736C179.816 16.1645 179.816 15.2735 179.816 14.2552C179.816 13.3643 179.816 12.7279 179.689 12.0915C179.562 11.5823 179.18 11.3278 178.798 10.9459C178.289 10.8187 177.653 10.6914 176.762 10.6914H172.053V18.0737ZM200.05 31.0564C198.141 31.0564 196.487 30.9291 195.087 30.8018C193.687 30.5473 192.415 30.0381 191.397 29.4017C190.251 28.7653 189.488 27.7471 188.979 26.4743C188.47 25.2014 188.088 23.6741 188.088 21.6376V14.3825C188.088 12.4733 188.342 10.8187 188.979 9.54584C189.615 8.27302 190.379 7.38205 191.397 6.61837C192.542 5.98196 193.687 5.47283 195.087 5.21827C196.487 4.96371 198.141 4.96371 200.05 4.96371C201.959 4.96371 203.613 5.09099 205.013 5.21827C206.413 5.47283 207.686 5.98196 208.704 6.61837C209.849 7.25477 210.613 8.27302 211.122 9.54584C211.758 10.8187 212.012 12.346 212.012 14.3825V21.6376C212.012 23.5468 211.758 25.2014 211.122 26.4743C210.485 27.7471 209.722 28.638 208.704 29.4017C207.558 30.0381 206.413 30.5473 205.013 30.8018C203.613 30.8018 201.959 31.0564 200.05 31.0564ZM200.05 24.9469C201.323 24.9469 202.341 24.8196 202.977 24.6923C203.613 24.565 204.122 24.0559 204.377 23.4195C204.631 22.7831 204.886 21.8921 204.886 20.6193V14.8917C204.886 14.0007 204.759 13.237 204.631 12.6006C204.504 12.0915 204.122 11.7096 203.868 11.3278C203.613 10.9459 202.977 10.8187 202.468 10.8187C201.959 10.8187 201.068 10.6914 200.177 10.6914C198.905 10.6914 197.887 10.8187 197.25 10.9459C196.614 11.0732 196.105 11.5823 195.851 12.0915C195.596 12.7279 195.342 13.6188 195.342 14.8917V20.7466C195.342 22.0194 195.469 22.9104 195.851 23.5468C196.105 24.1832 196.614 24.4378 197.25 24.8196C197.759 24.8196 198.65 24.9469 200.05 24.9469ZM221.429 4.96371V14.7644H223.466L230.083 4.96371H238.482L229.319 17.6918L239.246 30.8018H230.719L223.466 20.7466H221.429V30.8018H214.558V4.96371H221.429Z" fill="white"/>
</svg>
