<svg width="32" height="32" viewBox="0 0 32 32" fill="none" xmlns="http://www.w3.org/2000/svg">
<circle cx="16" cy="16" r="16" fill="#EDEDED"/>
<path d="M21.2785 9.29537C21.6723 8.90154 22.3108 8.90154 22.7046 9.29537C23.0985 9.68919 23.0985 10.3277 22.7046 10.7215L10.7215 22.7046C10.3277 23.0985 9.68919 23.0985 9.29537 22.7046C8.90154 22.3108 8.90154 21.6723 9.29537 21.2785L21.2785 9.29537Z" fill="black"/>
<path d="M22.7046 21.2785C23.0985 21.6723 23.0985 22.3108 22.7046 22.7046C22.3108 23.0985 21.6723 23.0985 21.2785 22.7046L9.29537 10.7215C8.90154 10.3277 8.90154 9.68919 9.29537 9.29537C9.68919 8.90154 10.3277 8.90154 10.7215 9.29537L22.7046 21.2785Z" fill="black"/>
</svg>
