<?xml version="1.0" encoding="utf-8"?>
<!-- Generator: Adobe Illustrator 19.0.0, SVG Export Plug-In . SVG Version: 6.00 Build 0)  -->
<svg version="1.1" id="Слой_1" xmlns="http://www.w3.org/2000/svg" xmlns:xlink="http://www.w3.org/1999/xlink" x="0px" y="0px"
	 width="188px" height="41.4px" viewBox="0 0 188 41.4" style="enable-background:new 0 0 188 41.4;" xml:space="preserve">
<style type="text/css">
	.st0{fill:#FFFFFF;}
	.st1{fill:#FFDE00;}
</style>
<g id="XMLID_233_">
	<g id="XMLID_252_">
		<path id="XMLID_255_" class="st0" d="M0,22.3v5.2h5.4c0.9,0,1.7-0.4,2.3-1s1-1.3,1-2.3v-9.7H3.3c-0.9,0-1.7,0.4-2.3,1
			c-0.6,0.6-1,1.3-1,2.3L0,22.3z"/>
		<path id="XMLID_254_" class="st0" d="M0,5.2V0h5.4c0.9,0,1.7,0.4,2.3,1s1,1.3,1,2.3V13H3.3c-0.9,0-1.7-0.4-2.3-1
			c-0.6-0.6-1-1.3-1-2.3L0,5.2z"/>
		<path id="XMLID_253_" class="st0" d="M16.3,20.8v3.8h-3.9c-0.6,0-1.2-0.2-1.7-0.7c-0.5-0.5-0.7-1-0.7-1.7v-7.1h3.9
			c0.6,0,1.2,0.2,1.7,0.7s0.7,1,0.7,1.7V20.8z"/>
	</g>
	<path id="XMLID_244_" class="st1" d="M20.6,3.9h5.1v13.4h0.2l6.3-13.4h7.1v20.3h-5.1V10.8h-0.1L28,24.2h-7.4L20.6,3.9z M60.3,3.9
		v20.3h-5.4v-7.9h-7.1v7.9h-5.4V3.9h5.4v7.7h7.1V3.9L60.3,3.9z M78,24.1h-5.4v-1.9h-2.8c-1.3,0-2.6-0.1-3.5-0.4
		c-1-0.2-1.7-0.7-2.3-1.3c-0.6-0.6-1-1.5-1.2-2.6c-0.2-1.1-0.4-2.3-0.4-3.9c0-2.1,0.2-3.7,0.7-4.9c0.5-1.2,1.2-2.1,2.3-2.6
		s2.6-0.7,4.4-0.7h2.8V3.9H78v1.9h2.7c1.8,0,3.3,0.2,4.4,0.7c1.1,0.5,1.8,1.3,2.3,2.6s0.7,2.8,0.7,4.9c0,1.6-0.1,2.9-0.4,4
		c-0.2,1-0.7,1.8-1.2,2.6c-0.6,0.6-1.3,1.1-2.3,1.3s-2.1,0.4-3.5,0.4H78L78,24.1L78,24.1z M70.7,17.5h1.8v-7.1h-1.8
		c-0.7,0-1.2,0.1-1.7,0.4c-0.4,0.2-0.7,0.6-0.9,1.1c-0.1,0.5-0.2,1.2-0.2,2.1c0,1,0.1,1.6,0.2,2.2c0.1,0.5,0.5,0.9,0.9,1.1
		C69.5,17.4,70,17.5,70.7,17.5z M78,17.5h1.8c0.7,0,1.2-0.1,1.6-0.2c0.4-0.2,0.7-0.6,0.9-1.1c0.2-0.5,0.2-1.2,0.2-2.2
		c0-1.3-0.2-2.2-0.6-2.8c-0.4-0.5-1.1-0.7-2.2-0.7h-1.8L78,17.5z M98.9,24.4c-1.5,0-2.8-0.1-3.9-0.2c-1.1-0.2-2.1-0.6-2.9-1.1
		c-0.9-0.5-1.5-1.2-1.9-2.3c-0.5-1-0.7-2.2-0.7-3.8v-5.7c0-1.5,0.2-2.8,0.7-3.8s1.1-1.7,1.9-2.3C92.9,4.6,93.9,4.3,95,4
		c1.1-0.2,2.4-0.4,3.9-0.4s2.8,0.1,3.9,0.2c1.1,0.2,2.1,0.6,2.9,1.1c0.9,0.5,1.5,1.3,1.9,2.3c0.5,1,0.7,2.2,0.7,3.8v5.7
		c0,1.5-0.2,2.8-0.7,3.8c-0.5,1-1.1,1.7-1.9,2.3c-0.9,0.6-1.8,1-2.9,1.1C101.7,24.2,100.3,24.4,98.9,24.4z M98.9,19.6
		c1,0,1.8-0.1,2.3-0.2c0.5-0.1,0.9-0.5,1.1-1c0.2-0.5,0.4-1.2,0.4-2.2v-4.6c0-0.7-0.1-1.3-0.2-1.8c-0.1-0.4-0.4-0.7-0.6-1
		c-0.2-0.2-0.6-0.4-1.1-0.5c-0.5,0-1.1-0.1-1.8-0.1c-1,0-1.8,0.1-2.3,0.2c-0.5,0.1-0.9,0.5-1.1,1s-0.4,1.2-0.4,2.2v4.6
		c0,1,0.1,1.7,0.4,2.2c0.2,0.5,0.6,0.7,1.1,0.9C97,19.5,97.8,19.6,98.9,19.6z"/>
	<path id="XMLID_234_" class="st0" d="M108.7,3.9h6.1l3.5,8.8h0.2l3.5-8.8h6.2l-7.7,15.7c-0.6,1.2-1.2,2.1-1.8,2.8
		c-0.6,0.7-1.2,1.2-1.9,1.5s-1.7,0.5-2.7,0.5c-0.7,0-1.7-0.1-2.7-0.2v-4.4c0.4,0.1,1,0.2,1.8,0.2c0.6,0,1.1,0,1.3-0.1
		c0.2,0,0.5-0.1,0.6-0.4c0.1-0.1,0.2-0.5,0.4-0.9L108.7,3.9z M135.2,24.1h-5.4V3.8H140c1.2,0,2.3,0.1,3.3,0.4
		c0.9,0.2,1.6,0.7,2.1,1.3c0.5,0.6,1,1.3,1.2,2.3c0.2,1,0.4,2.1,0.4,3.4c0,1.5-0.1,2.7-0.2,3.7c-0.2,1-0.6,1.7-1.1,2.3
		c-0.5,0.6-1.2,1-2.1,1.2s-2.1,0.4-3.5,0.4h-4.7L135.2,24.1z M135.2,14.2h3.7c0.7,0,1.2-0.1,1.6-0.2c0.4-0.1,0.6-0.4,0.7-0.9
		c0.1-0.4,0.1-1.1,0.1-1.9c0-0.7,0-1.2-0.1-1.7c-0.1-0.4-0.4-0.6-0.7-0.9c-0.4-0.1-0.9-0.2-1.6-0.2h-3.7V14.2z M157.2,24.4
		c-1.5,0-2.8-0.1-3.9-0.2c-1.1-0.2-2.1-0.6-2.9-1.1c-0.9-0.5-1.5-1.3-1.9-2.3s-0.7-2.2-0.7-3.8v-5.7c0-1.5,0.2-2.8,0.7-3.8
		s1.1-1.7,1.9-2.3c0.9-0.5,1.8-0.9,2.9-1.1c1.1-0.2,2.4-0.2,3.9-0.2s2.8,0.1,3.9,0.2c1.1,0.2,2.1,0.6,2.9,1.1
		c0.9,0.5,1.5,1.3,1.9,2.3c0.5,1,0.7,2.2,0.7,3.8v5.7c0,1.5-0.2,2.8-0.7,3.8c-0.5,1-1.1,1.7-1.9,2.3c-0.9,0.5-1.8,0.9-2.9,1.1
		C160,24.2,158.7,24.4,157.2,24.4z M157.2,19.6c1,0,1.8-0.1,2.3-0.2c0.5-0.1,0.9-0.5,1.1-1c0.2-0.5,0.4-1.2,0.4-2.2v-4.5
		c0-0.7-0.1-1.3-0.2-1.8c-0.1-0.4-0.4-0.7-0.6-1s-0.7-0.4-1.1-0.4c-0.4,0-1.1-0.1-1.8-0.1c-1,0-1.8,0.1-2.3,0.2
		c-0.5,0.1-0.9,0.5-1.1,0.9c-0.2,0.5-0.4,1.2-0.4,2.2v4.6c0,1,0.1,1.7,0.4,2.2c0.2,0.5,0.6,0.7,1.1,1
		C155.4,19.5,156.1,19.6,157.2,19.6z M174,3.9v7.7h1.6l5.2-7.7h6.6l-7.2,10l7.8,10.3h-6.7l-5.7-7.9H174v7.9h-5.4V3.9L174,3.9z"/>
</g>
<g>
	<path class="st0" d="M0.2,39.6v-6.4h2c0.7,0,1.2,0.3,1.5,0.8c0.1,0.3,0.2,0.6,0.2,0.9c0,0.6-0.2,1.1-0.7,1.4c0.7,0.2,1,0.8,1,1.6
		c0,0.4-0.1,0.7-0.2,1c-0.2,0.3-0.4,0.6-0.7,0.7c-0.3,0.1-0.6,0.2-1.1,0.2H0.2z M0.9,35.9H2c0.3,0,0.5,0,0.6-0.1
		c0.4-0.1,0.6-0.4,0.6-0.9c0-0.5-0.2-0.8-0.5-0.9C2.6,34,2.3,34,2,34H0.9V35.9z M0.9,38.9h1.3c0.3,0,0.5,0,0.6-0.1
		c0.4-0.2,0.6-0.5,0.6-1c0-0.5-0.2-0.8-0.5-1c-0.2-0.1-0.4-0.1-0.8-0.1H0.9V38.9z"/>
	<path class="st0" d="M5.3,39.6v-6.4h3.8V34H6v2H9v0.8H6v2.2h3.2v0.8H5.3z"/>
	<path class="st0" d="M10.9,33.2h3.2v5.7h0.5v2.3H14v-1.5h-3.5v1.5H9.9v-2.3h0.4c0.4-0.8,0.6-2.4,0.6-4.7V33.2z M13.4,34h-1.8v0.3
		c0,2-0.2,3.6-0.6,4.6h2.4V34z"/>
	<path class="st0" d="M15.1,33.2h0.7l1.7,3.9l1.5-3.9h0.7l-2,5c-0.2,0.5-0.4,0.9-0.4,1c-0.2,0.4-0.5,0.5-0.8,0.5
		c-0.2,0-0.4-0.1-0.7-0.2v-0.7C16,39,16.2,39,16.4,39c0.2,0,0.4-0.1,0.6-0.4c0.1-0.1,0.2-0.4,0.3-0.7L15.1,33.2z"/>
	<path class="st0" d="M20.5,33.2h0.7v5.7h1.8v-5.7h0.7v5.7h1.8v-5.7h0.7v5.7h0.5v2.5h-0.6v-1.8h-5.5V33.2z"/>
	<path class="st0" d="M27.6,33.2h0.6v5.1l2.8-5.1h0.7v6.4h-0.6v-5.1l-2.8,5.1h-0.7V33.2z"/>
	<path class="st0" d="M33.1,33.2h0.6v5.1l2.8-5.1h0.7v6.4h-0.6v-5.1l-2.8,5.1h-0.7V33.2z M35.9,31.6h0.4c-0.1,0.8-0.4,1.1-1.1,1.1
		c-0.6,0-1-0.4-1.1-1.1h0.4c0.1,0.4,0.3,0.6,0.6,0.6C35.6,32.2,35.8,32,35.9,31.6z"/>
	<path class="st0" d="M40.6,36.5c0-0.9,0.2-1.7,0.6-2.3c0.5-0.7,1.1-1.1,2-1.1c0.5,0,0.9,0.1,1.3,0.4c0.4,0.3,0.6,0.6,0.9,1.1
		c0.2,0.5,0.3,1.1,0.3,1.8c0,1-0.2,1.7-0.7,2.3c-0.5,0.7-1.1,1-1.9,1c-0.8,0-1.4-0.3-1.9-1C40.8,38.1,40.6,37.4,40.6,36.5z
		 M41.3,36.5c0,0.7,0.1,1.2,0.4,1.7c0.3,0.6,0.8,0.8,1.4,0.8c0.6,0,1.1-0.3,1.4-0.9c0.3-0.5,0.4-1,0.4-1.7c0-1.1-0.3-1.9-0.9-2.3
		c-0.3-0.2-0.6-0.3-0.9-0.3c-0.7,0-1.1,0.3-1.5,0.9C41.4,35.2,41.3,35.8,41.3,36.5z"/>
	<path class="st0" d="M46.7,33.2h3.4V34h-2.7v2h1.3c0.4,0,0.8,0,1,0.1c0.3,0.1,0.6,0.3,0.8,0.6c0.2,0.3,0.3,0.6,0.3,1.1
		c0,0.3-0.1,0.7-0.2,1c-0.2,0.3-0.4,0.6-0.6,0.7c-0.2,0.1-0.6,0.2-1.1,0.2h-2.1V33.2z M47.4,38.9h1.4c0.8,0,1.1-0.4,1.1-1.1
		c0-0.6-0.2-0.9-0.6-1c-0.2-0.1-0.5-0.1-1-0.1h-0.9V38.9z"/>
	<path class="st0" d="M51.7,39.6v-6.4h2c0.5,0,0.8,0,1,0.1c0.3,0.1,0.6,0.4,0.8,0.7c0.2,0.3,0.2,0.6,0.2,1c0,1.3-0.7,2-2,2h-1.4v2.6
		H51.7z M52.4,36.3h1.4c0.8,0,1.2-0.4,1.2-1.2c0-0.5-0.2-0.9-0.5-1C54.4,34,54.1,34,53.8,34h-1.4V36.3z"/>
	<path class="st0" d="M56.2,39.6l2-6.4H59l2.2,6.4h-0.8l-0.6-2h-2.2l-0.6,2H56.2z M57.8,37h1.8L59,35.2c-0.2-0.6-0.3-1-0.4-1.3
		c-0.1,0.4-0.2,0.8-0.3,1.2L57.8,37z"/>
	<path class="st0" d="M61.6,37.8l0.7-0.2c0.1,0.4,0.2,0.7,0.4,0.9c0.2,0.3,0.5,0.5,0.9,0.5c0.3,0,0.6-0.1,0.9-0.3
		c0.2-0.2,0.3-0.5,0.3-0.9c0-0.4-0.1-0.7-0.4-0.9c-0.2-0.2-0.5-0.3-0.9-0.3h-0.3v-0.7c0.3,0,0.5,0,0.7,0c0.2-0.1,0.4-0.2,0.5-0.4
		s0.2-0.4,0.2-0.6c0-0.3-0.1-0.5-0.3-0.7s-0.4-0.3-0.7-0.3c-0.5,0-0.9,0.3-1.1,0.8c-0.1,0.3-0.1,0.5-0.1,0.7l-0.7-0.2
		c0.2-1.4,0.8-2.1,1.9-2.1c0.5,0,0.9,0.2,1.2,0.5c0.3,0.3,0.5,0.7,0.5,1.2c0,0.6-0.2,1.1-0.7,1.4c0.3,0.1,0.5,0.3,0.7,0.6
		c0.2,0.3,0.2,0.6,0.2,0.9c0,0.6-0.2,1-0.5,1.4s-0.8,0.5-1.4,0.5C62.6,39.8,61.9,39.1,61.6,37.8z"/>
	<path class="st0" d="M66.4,36.5c0-0.9,0.2-1.7,0.6-2.3c0.5-0.7,1.1-1.1,2-1.1c0.5,0,0.9,0.1,1.3,0.4c0.4,0.3,0.6,0.6,0.9,1.1
		c0.2,0.5,0.3,1.1,0.3,1.8c0,1-0.2,1.7-0.7,2.3c-0.5,0.7-1.1,1-1.9,1c-0.8,0-1.4-0.3-1.9-1C66.6,38.1,66.4,37.4,66.4,36.5z
		 M67.1,36.5c0,0.7,0.1,1.2,0.4,1.7c0.3,0.6,0.8,0.8,1.4,0.8c0.6,0,1.1-0.3,1.4-0.9c0.3-0.5,0.4-1,0.4-1.7c0-1.1-0.3-1.9-0.9-2.3
		c-0.3-0.2-0.6-0.3-0.9-0.3c-0.7,0-1.1,0.3-1.5,0.9C67.2,35.2,67.1,35.8,67.1,36.5z"/>
	<path class="st0" d="M72.5,39.6v-6.4h2c0.7,0,1.2,0.3,1.5,0.8c0.1,0.3,0.2,0.6,0.2,0.9c0,0.6-0.2,1.1-0.7,1.4c0.7,0.2,1,0.8,1,1.6
		c0,0.4-0.1,0.7-0.2,1c-0.2,0.3-0.4,0.6-0.7,0.7c-0.3,0.1-0.6,0.2-1.1,0.2H72.5z M73.2,35.9h1.1c0.3,0,0.5,0,0.6-0.1
		c0.4-0.1,0.6-0.4,0.6-0.9c0-0.5-0.2-0.8-0.5-0.9C74.9,34,74.6,34,74.2,34h-1.1V35.9z M73.2,38.9h1.3c0.3,0,0.5,0,0.6-0.1
		c0.4-0.2,0.6-0.5,0.6-1c0-0.5-0.2-0.8-0.5-1c-0.2-0.1-0.4-0.1-0.8-0.1h-1.2V38.9z"/>
	<path class="st0" d="M77,39.6l2-6.4h0.8l2.2,6.4h-0.8l-0.6-2h-2.2l-0.6,2H77z M78.5,37h1.8l-0.5-1.8c-0.2-0.6-0.3-1-0.4-1.3
		c-0.1,0.4-0.2,0.8-0.3,1.2L78.5,37z"/>
	<path class="st0" d="M84,39.6V34h-1.7v-0.8h4.2V34h-1.7v5.7H84z"/>
	<path class="st0" d="M87.4,39.6v-6.4h3.8V34h-3.1v2H91v0.8h-2.9v2.2h3.2v0.8H87.4z"/>
	<path class="st0" d="M92.9,33.2h3.3v6.4h-0.7V34h-1.9v3.3c0,0.6,0,1,0,1.2c-0.1,0.5-0.2,0.8-0.4,1.1c-0.2,0.2-0.4,0.3-0.6,0.3
		c-0.2,0-0.3,0-0.6-0.1l0.1-0.8c0.1,0.1,0.2,0.1,0.3,0.1c0.2,0,0.4-0.2,0.4-0.5c0-0.1,0-0.4,0-0.8V33.2z"/>
	<path class="st0" d="M97.5,33.2h0.7V36h1.3c0.4,0,0.8,0,1,0.1c0.3,0.1,0.6,0.3,0.8,0.6c0.2,0.3,0.3,0.6,0.3,1.1
		c0,1.2-0.7,1.9-2,1.9h-2V33.2z M98.2,38.9h1.3c0.4,0,0.7-0.1,0.9-0.3c0.2-0.2,0.3-0.5,0.3-0.9c0-0.6-0.2-0.9-0.6-1
		c-0.2-0.1-0.5-0.1-1-0.1h-0.9V38.9z"/>
	<path class="st0" d="M102.5,39.6v-6.4h0.7v2.6h2.7v-2.6h0.7v6.4H106v-3h-2.7v3H102.5z"/>
	<path class="st0" d="M108.1,33.2h0.7V36h1.3c0.4,0,0.8,0,1,0.1c0.3,0.1,0.6,0.3,0.8,0.6c0.2,0.3,0.3,0.6,0.3,1.1
		c0,1.2-0.7,1.9-2,1.9h-2V33.2z M108.8,38.9h1.3c0.4,0,0.7-0.1,0.9-0.3c0.2-0.2,0.3-0.5,0.3-0.9c0-0.6-0.2-0.9-0.6-1
		c-0.2-0.1-0.5-0.1-1-0.1h-0.9V38.9z M113,39.6v-6.4h0.7v6.4H113z"/>
	<path class="st0" d="M115.1,33.2h0.6v5.1l2.8-5.1h0.7v6.4h-0.6v-5.1l-2.8,5.1h-0.7V33.2z M117.9,31.6h0.4c-0.1,0.8-0.4,1.1-1.1,1.1
		c-0.6,0-1-0.4-1.1-1.1h0.4c0.1,0.4,0.3,0.6,0.6,0.6C117.6,32.2,117.9,32,117.9,31.6z"/>
	<path class="st0" d="M123.6,39.6h-0.7v-6.4h4.1v6.4h-0.7V34h-2.7V39.6z"/>
	<path class="st0" d="M128.1,36.5c0-0.9,0.2-1.7,0.6-2.3c0.5-0.7,1.1-1.1,2-1.1c0.5,0,0.9,0.1,1.3,0.4c0.4,0.3,0.6,0.6,0.9,1.1
		c0.2,0.5,0.3,1.1,0.3,1.8c0,1-0.2,1.7-0.7,2.3c-0.5,0.7-1.1,1-1.9,1c-0.8,0-1.4-0.3-1.9-1C128.4,38.1,128.1,37.4,128.1,36.5z
		 M128.9,36.5c0,0.7,0.1,1.2,0.4,1.7c0.3,0.6,0.8,0.8,1.4,0.8c0.6,0,1.1-0.3,1.4-0.9c0.3-0.5,0.4-1,0.4-1.7c0-1.1-0.3-1.9-0.9-2.3
		c-0.3-0.2-0.6-0.3-0.9-0.3c-0.7,0-1.1,0.3-1.5,0.9C129,35.2,128.9,35.8,128.9,36.5z"/>
	<path class="st0" d="M134.3,39.6v-6.4h2c0.5,0,0.8,0,1,0.1c0.3,0.1,0.6,0.4,0.8,0.7c0.2,0.3,0.2,0.6,0.2,1c0,1.3-0.7,2-2,2H135v2.6
		H134.3z M135,36.3h1.4c0.8,0,1.2-0.4,1.2-1.2c0-0.5-0.2-0.9-0.5-1c-0.1-0.1-0.4-0.1-0.8-0.1H135V36.3z"/>
	<path class="st0" d="M140.7,39.6V34H139v-0.8h4.2V34h-1.7v5.7H140.7z"/>
	<path class="st0" d="M143.5,39.6l2-6.4h0.8l2.2,6.4h-0.8l-0.6-2h-2.2l-0.6,2H143.5z M145,37h1.8l-0.5-1.8c-0.2-0.6-0.3-1-0.4-1.3
		c-0.1,0.4-0.2,0.8-0.3,1.2L145,37z"/>
	<path class="st0" d="M149.5,33.2h3.3v6.4h-0.7V34h-1.9v3.3c0,0.6,0,1,0,1.2c-0.1,0.5-0.2,0.8-0.4,1.1c-0.2,0.2-0.4,0.3-0.6,0.3
		c-0.2,0-0.3,0-0.6-0.1l0.1-0.8c0.1,0.1,0.2,0.1,0.3,0.1c0.2,0,0.4-0.2,0.4-0.5c0-0.1,0-0.4,0-0.8V33.2z"/>
	<path class="st0" d="M156.4,39.6v-6.4h2c0.5,0,0.8,0,1,0.1c0.3,0.1,0.6,0.4,0.8,0.7c0.2,0.3,0.2,0.6,0.2,1c0,1.3-0.7,2-2,2h-1.4
		v2.6H156.4z M157.1,36.3h1.4c0.8,0,1.2-0.4,1.2-1.2c0-0.5-0.2-0.9-0.5-1c-0.1-0.1-0.4-0.1-0.8-0.1h-1.4V36.3z"/>
	<path class="st0" d="M161.3,36.5c0-0.9,0.2-1.7,0.6-2.3c0.5-0.7,1.1-1.1,2-1.1c0.5,0,0.9,0.1,1.3,0.4c0.4,0.3,0.6,0.6,0.9,1.1
		c0.2,0.5,0.3,1.1,0.3,1.8c0,1-0.2,1.7-0.7,2.3c-0.5,0.7-1.1,1-1.9,1c-0.8,0-1.4-0.3-1.9-1C161.5,38.1,161.3,37.4,161.3,36.5z
		 M162,36.5c0,0.7,0.1,1.2,0.4,1.7c0.3,0.6,0.8,0.8,1.4,0.8c0.6,0,1.1-0.3,1.4-0.9c0.3-0.5,0.4-1,0.4-1.7c0-1.1-0.3-1.9-0.9-2.3
		c-0.3-0.2-0.6-0.3-0.9-0.3c-0.7,0-1.1,0.3-1.5,0.9C162.1,35.2,162,35.8,162,36.5z"/>
	<path class="st0" d="M171.2,37.4l0.7,0.2c-0.3,1.4-1.1,2.2-2.2,2.2c-1,0-1.7-0.5-2.1-1.5c-0.2-0.5-0.3-1.1-0.3-1.9
		c0-1.4,0.4-2.4,1.2-2.9c0.4-0.2,0.8-0.4,1.3-0.4c0.6,0,1,0.2,1.4,0.5c0.3,0.3,0.6,0.8,0.7,1.3l-0.7,0.2c-0.2-0.9-0.7-1.3-1.4-1.3
		c-0.7,0-1.2,0.4-1.5,1.1c-0.2,0.4-0.2,0.9-0.2,1.4c0,0.7,0.1,1.3,0.3,1.7c0.3,0.6,0.8,0.9,1.4,0.9c0.4,0,0.8-0.2,1.1-0.5
		C170.9,38.2,171.1,37.9,171.2,37.4z"/>
	<path class="st0" d="M176.7,37.4l0.7,0.2c-0.3,1.4-1.1,2.2-2.2,2.2c-1,0-1.7-0.5-2.1-1.5c-0.2-0.5-0.3-1.1-0.3-1.9
		c0-1.4,0.4-2.4,1.2-2.9c0.4-0.2,0.8-0.4,1.3-0.4c0.6,0,1,0.2,1.4,0.5c0.3,0.3,0.6,0.8,0.7,1.3l-0.7,0.2c-0.2-0.9-0.7-1.3-1.4-1.3
		c-0.7,0-1.2,0.4-1.5,1.1c-0.2,0.4-0.2,0.9-0.2,1.4c0,0.7,0.1,1.3,0.3,1.7c0.3,0.6,0.8,0.9,1.4,0.9c0.4,0,0.8-0.2,1.1-0.5
		C176.5,38.2,176.6,37.9,176.7,37.4z"/>
	<path class="st0" d="M178.5,33.2h0.6v5.1l2.8-5.1h0.7v6.4H182v-5.1l-2.8,5.1h-0.7V33.2z"/>
	<path class="st0" d="M183.9,33.2h0.6v5.1l2.8-5.1h0.7v6.4h-0.6v-5.1l-2.8,5.1h-0.7V33.2z"/>
</g>
</svg>
