<?xml version="1.0" encoding="utf-8"?>
<!-- Generator: Adobe Illustrator 19.0.0, SVG Export Plug-In . SVG Version: 6.00 Build 0)  -->
<svg version="1.1" id="Слой_1" xmlns="http://www.w3.org/2000/svg" xmlns:xlink="http://www.w3.org/1999/xlink" x="0px" y="0px"
	 viewBox="0 0 20 20" style="enable-background:new 0 0 20 20;" xml:space="preserve">
<style type="text/css">
	.st0{opacity:0.5;}
</style>
<g id="XMLID_5_" class="st0">
	<g id="XMLID_6_">
		<path id="XMLID_8_" d="M10,20c5.5,0,10-4.5,10-10S15.5,0,10,0S0,4.5,0,10S4.5,20,10,20z M10,1.4c4.7,0,8.6,3.9,8.6,8.6
			s-3.9,8.6-8.6,8.6S1.4,14.7,1.4,10S5.3,1.4,10,1.4z"/>
		<path id="XMLID_1_" d="M7.7,15c0.1,0.1,0.3,0.2,0.5,0.2c0.2,0,0.4-0.1,0.5-0.2l4.5-4.5c0.1-0.1,0.2-0.3,0.2-0.5
			c0-0.2-0.1-0.4-0.2-0.5L8.7,4.9c-0.3-0.3-0.7-0.3-1,0c-0.3,0.3-0.3,0.7,0,1l4,4l-4,4C7.4,14.3,7.4,14.7,7.7,15z"/>
	</g>
</g>
</svg>
